<?xml version="1.0" standalone="no"?><!DOCTYPE svg PUBLIC "-//W3C//DTD SVG 1.1//EN" "http://www.w3.org/Graphics/SVG/1.1/DTD/svg11.dtd"><svg t="1591683333827" class="icon" viewBox="0 0 1024 1024" version="1.1" xmlns="http://www.w3.org/2000/svg" p-id="3963" xmlns:xlink="http://www.w3.org/1999/xlink" width="100" height="100"><defs><style type="text/css"></style></defs><path d="M902.095238 314.514286V853.333333a97.52381 97.52381 0 0 1-97.523809 97.52381H219.428571a97.52381 97.52381 0 0 1-97.523809-97.52381V170.666667a97.52381 97.52381 0 0 1 97.523809-97.52381h441.295239z" fill="#4997D9" p-id="3964"></path><path d="M660.72381 265.752381V73.142857l241.371428 241.371429h-192.609524a48.761905 48.761905 0 0 1-48.761904-48.761905z" fill="#4B80CB" p-id="3965"></path><path d="M269.409524 502.00381a47.055238 47.055238 0 0 1 48.761905-51.931429 46.32381 46.32381 0 0 1 43.885714 28.769524l-16.822857 6.826666a24.380952 24.380952 0 0 0-28.281905-18.285714 29.744762 29.744762 0 0 0-30.476191 33.889524c0 19.992381 9.264762 35.108571 30.72 35.108571a26.575238 26.575238 0 0 0 27.306667-18.529523l16.579048 6.826666A45.104762 45.104762 0 0 1 316.952381 553.447619a46.811429 46.811429 0 0 1-47.542857-51.443809zM402.285714 451.779048h13.409524l39.984762 100.449523h-19.504762l-8.045714-21.942857H390.095238l-8.289524 21.942857h-19.504762z m20.236191 63.146666l-13.409524-36.571428-13.653333 36.571428zM469.577143 451.779048h29.013333a46.32381 46.32381 0 0 1 52.175238 50.95619 46.32381 46.32381 0 0 1-52.175238 48.761905h-29.013333zM496.64 536.380952c22.186667 0 36.08381-8.777143 36.08381-33.645714s-9.752381-33.645714-34.377143-33.645714H487.619048V536.380952zM267.459048 655.60381h335.725714v17.798095H267.459048zM670.232381 655.60381H804.571429v17.798095h-134.339048zM627.809524 362.300952h17.798095v268.434286h-17.798095zM627.809524 698.026667h17.798095v134.339047h-17.798095z" fill="#FFFFFF" p-id="3966"></path><path d="M682.666667 609.52381h-90.697143a10.971429 10.971429 0 0 0-11.215238 11.215238v89.478095a10.971429 10.971429 0 0 0 11.215238 11.215238H682.666667a10.971429 10.971429 0 0 0 11.215238-11.215238v-90.453333A10.971429 10.971429 0 0 0 682.666667 609.52381z m-11.215238 89.478095h-68.266667v-68.022857h67.047619z" fill="#FFFFFF" p-id="3967"></path></svg>